<?xml version="1.0" standalone="no"?>
<!DOCTYPE svg PUBLIC "-//W3C//DTD SVG 20010904//EN"
 "http://www.w3.org/TR/2001/REC-SVG-20010904/DTD/svg10.dtd">
<svg version="1.0" xmlns="http://www.w3.org/2000/svg"
 width="512.000000pt" height="512.000000pt" viewBox="0 0 512.000000 512.000000"
 preserveAspectRatio="xMidYMid meet">
<metadata>
Created by potrace 1.14, written by Peter Selinger 2001-2017
</metadata>
<g transform="translate(0.000000,512.000000) scale(0.100000,-0.100000)"
fill="#000000" stroke="none">
<path d="M1415 5113 c-91 -8 -261 -46 -357 -79 -392 -136 -707 -411 -891 -779
-259 -517 -211 -1140 123 -1607 33 -46 58 -88 56 -93 -2 -6 -29 -45 -59 -88
-106 -147 -183 -310 -233 -493 -51 -189 -54 -242 -54 -1141 l0 -833 570 0 570
0 2 833 3 832 22 55 c49 120 150 213 271 250 63 20 99 20 1873 20 l1809 0 0
570 0 570 -1827 2 -1828 3 -55 22 c-227 93 -332 354 -232 576 40 87 115 163
207 208 l70 34 1833 3 1832 2 0 570 0 570 -1832 -2 c-1008 -1 -1851 -3 -1873
-5z"/>
<path d="M1990 565 l0 -565 823 0 c986 0 1050 4 1296 86 393 131 715 411 903
789 42 84 98 224 98 246 0 5 -593 9 -1560 9 l-1560 0 0 -565z"/>
</g>
</svg>
